<svg xmlns="http://www.w3.org/2000/svg" viewBox="0 0 100 100">
  <!-- Baker Face — Green (Clear State) -->

  <!-- Outer ring -->
  <circle cx="50" cy="50" r="46" fill="none" stroke="#ffffff" stroke-width="2.5" opacity="0.3"/>

  <!-- Subtle dashed reference ring -->
  <circle cx="50" cy="50" r="42" fill="none" stroke="#ffffff" stroke-width="0.6" opacity="0.1" stroke-dasharray="2,5"/>

  <!-- 16 Radiating blades -->
  <g fill="#34d058" opacity="0.78">
    <path d="M48.5,37 L45.5,12 Q50,5 54.5,12 L51.5,37 Z"/>
    <path d="M48.5,37 L45.5,12 Q50,5 54.5,12 L51.5,37 Z" transform="rotate(22.5,50,50)"/>
    <path d="M48.5,37 L45.5,12 Q50,5 54.5,12 L51.5,37 Z" transform="rotate(45,50,50)"/>
    <path d="M48.5,37 L45.5,12 Q50,5 54.5,12 L51.5,37 Z" transform="rotate(67.5,50,50)"/>
    <path d="M48.5,37 L45.5,12 Q50,5 54.5,12 L51.5,37 Z" transform="rotate(90,50,50)"/>
    <path d="M48.5,37 L45.5,12 Q50,5 54.5,12 L51.5,37 Z" transform="rotate(112.5,50,50)"/>
    <path d="M48.5,37 L45.5,12 Q50,5 54.5,12 L51.5,37 Z" transform="rotate(135,50,50)"/>
    <path d="M48.5,37 L45.5,12 Q50,5 54.5,12 L51.5,37 Z" transform="rotate(157.5,50,50)"/>
    <path d="M48.5,37 L45.5,12 Q50,5 54.5,12 L51.5,37 Z" transform="rotate(180,50,50)"/>
    <path d="M48.5,37 L45.5,12 Q50,5 54.5,12 L51.5,37 Z" transform="rotate(202.5,50,50)"/>
    <path d="M48.5,37 L45.5,12 Q50,5 54.5,12 L51.5,37 Z" transform="rotate(225,50,50)"/>
    <path d="M48.5,37 L45.5,12 Q50,5 54.5,12 L51.5,37 Z" transform="rotate(247.5,50,50)"/>
    <path d="M48.5,37 L45.5,12 Q50,5 54.5,12 L51.5,37 Z" transform="rotate(270,50,50)"/>
    <path d="M48.5,37 L45.5,12 Q50,5 54.5,12 L51.5,37 Z" transform="rotate(292.5,50,50)"/>
    <path d="M48.5,37 L45.5,12 Q50,5 54.5,12 L51.5,37 Z" transform="rotate(315,50,50)"/>
    <path d="M48.5,37 L45.5,12 Q50,5 54.5,12 L51.5,37 Z" transform="rotate(337.5,50,50)"/>
  </g>

  <!-- Inner guide ring -->
  <circle cx="50" cy="50" r="13" fill="none" stroke="#ffffff" stroke-width="1" opacity="0.12"/>

  <!-- Center glow halo -->
  <circle cx="50" cy="50" r="6" fill="#34d058" opacity="0.15"/>

  <!-- Center dot -->
  <circle cx="50" cy="50" r="3.5" fill="#34d058"/>
</svg>
